HIERARCHY
ROOT SpineBase
{
  OFFSET 0.000000 0.000000 0.000000
  CHANNELS 6 Xposition Yposition Zposition Zrotation Xrotation Yrotation
  JOINT SpineMid
  {
    OFFSET 0.000000 27.081194 0.000000
    CHANNELS 3 Zrotation Xrotation Yrotation
    JOINT SpineShoulder
    {
      OFFSET -0.048155 20.086679 -0.578835
      CHANNELS 3 Zrotation Xrotation Yrotation
      JOINT Neck
      {
        OFFSET -0.021192 6.680491 -0.474152
        CHANNELS 3 Zrotation Xrotation Yrotation
        JOINT Head
        {
          OFFSET -3.097542 12.742565 -1.024631
          CHANNELS 3 Zrotation Xrotation Yrotation
          End Site
          {
            OFFSET 0 0 0
          }
        }
      }
      JOINT ShoulderLeft
      {
        OFFSET -13.389954 -5.256827 3.563809
        CHANNELS 3 Zrotation Xrotation Yrotation
        JOINT ElbowLeft
        {
          OFFSET -1.741691 -18.969551 4.891601
          CHANNELS 3 Zrotation Xrotation Yrotation
          JOINT WristLeft
          {
            OFFSET -0.521561 -19.948992 0.224650
            CHANNELS 3 Zrotation Xrotation Yrotation
            JOINT HandLeft
            {
              OFFSET 0.913023 -16.760989 -1.216975
              CHANNELS 3 Zrotation Xrotation Yrotation
              JOINT HandTipLeft
              {
                OFFSET 1.306575 -4.061782 -2.288648
                CHANNELS 3 Zrotation Xrotation Yrotation
                End Site
                {
                  OFFSET 0 0 0
                }
              }
              JOINT ThumbLeft
              {
                OFFSET -1.553514 0.979540 -0.651143
                CHANNELS 3 Zrotation Xrotation Yrotation
                End Site
                {
                  OFFSET 0 0 0
                }
              }
            }
          }
        }
      }
      JOINT ShoulderRight
      {
        OFFSET 12.013326 -3.053385 -11.102376
        CHANNELS 3 Zrotation Xrotation Yrotation
        JOINT ElbowRight
        {
          OFFSET 3.294877 -16.729667 -8.971270
          CHANNELS 3 Zrotation Xrotation Yrotation
          JOINT WristRight
          {
            OFFSET -13.339919 12.421631 -8.253164
            CHANNELS 3 Zrotation Xrotation Yrotation
            JOINT HandRight
            {
              OFFSET -4.517840 2.130629 -0.632039
              CHANNELS 3 Zrotation Xrotation Yrotation
              JOINT HandTipRight
              {
                OFFSET -4.053290 2.120793 -0.025213
                CHANNELS 3 Zrotation Xrotation Yrotation
                End Site
                {
                  OFFSET 0 0 0
                }
              }
              JOINT ThumbRight
              {
                OFFSET 2.336387 -1.982148 -4.091301
                CHANNELS 3 Zrotation Xrotation Yrotation
                End Site
                {
                  OFFSET 0 0 0
                }
              }
            }
          }
        }
      }
    }
  }
  JOINT HipLeft
  {
    OFFSET -5.321793 -0.033811 -0.029863
    CHANNELS 3 Zrotation Xrotation Yrotation
    JOINT KneeLeft
    {
      OFFSET 6.041651 -31.660920 8.696407
      CHANNELS 3 Zrotation Xrotation Yrotation
      JOINT AnkleLeft
      {
        OFFSET 6.255445 -30.647315 8.434110
        CHANNELS 3 Zrotation Xrotation Yrotation
        JOINT FootLeft
        {
          OFFSET -1.858951 -9.611369 -2.888922
          CHANNELS 3 Zrotation Xrotation Yrotation
          End Site
          {
            OFFSET 0 0 0
          }
        }
      }
    }
  }
  JOINT HipRight
  {
    OFFSET 4.886047 1.069313 -6.301422
    CHANNELS 3 Zrotation Xrotation Yrotation
    JOINT KneeRight
    {
      OFFSET 7.919004 -27.062068 1.876837
      CHANNELS 3 Zrotation Xrotation Yrotation
      JOINT AnkleRight
      {
        OFFSET 8.578819 -38.058920 10.856206
        CHANNELS 3 Zrotation Xrotation Yrotation
        JOINT FootRight
        {
          OFFSET -4.027045 -3.469167 -9.871560
          CHANNELS 3 Zrotation Xrotation Yrotation
          End Site
          {
            OFFSET 0 0 0
          }
        }
      }
    }
  }
}
MOTION
Frames: 13
Frame Time: 0.033333
24.243162 71.953414 361.373802 -0.000000 0.000000 31.566002 0.000000 0.000000 -31.566002 -0.000000 0.000000 0.000000 -0.000000 0.000000 0.000000 0.000000 0.000000 0.000000 -0.000000 0.000000 0.000000 -0.000000 0.000000 0.000000 -0.000000 0.000000 0.000000 -0.000000 0.000000 0.000000 0.000000 0.000000 0.000000 0.000000 0.000000 0.000000 -0.000000 0.000000 0.000000 -0.000000 0.000000 0.000000 -0.000000 0.000000 0.000000 -0.000000 0.000000 0.000000 0.000000 0.000000 0.000000 0.000000 0.000000 0.000000 0.000000 0.000000 -31.566002 -0.000000 0.000000 0.000000 -0.000000 0.000000 0.000000 0.000000 0.000000 0.000000 0.000000 0.000000 -31.566002 -0.000000 0.000000 0.000000 -0.000000 0.000000 0.000000 0.000000 0.000000 0.000000
24.251504 71.866059 361.278653 -0.087771 -0.285528 31.785265 0.225007 0.196473 -31.785870 -0.000000 0.000000 0.000000 0.832637 1.705546 0.468915 0.000000 0.000000 0.000000 0.851133 2.179309 0.003193 -0.851870 -2.179021 -0.035583 -0.707143 -1.387409 -0.032838 -0.241667 2.098442 0.806551 0.000000 0.000000 0.000000 0.000000 0.000000 0.000000 -0.008305 0.880177 0.177143 -1.278548 1.554002 1.629567 -10.890893 0.097501 -0.775909 7.796512 -0.391389 2.825395 0.000000 0.000000 0.000000 0.000000 0.000000 0.000000 0.225007 0.196473 -31.785870 0.638078 -0.522104 0.071768 -4.350371 8.379619 -0.176800 0.000000 0.000000 0.000000 0.225007 0.196473 -31.785870 -0.000000 0.000000 0.000000 -0.000000 0.000000 0.000000 0.000000 0.000000 0.000000
24.259173 71.791382 361.206710 -0.133425 -0.547498 31.932137 -0.282201 -0.241938 -31.942469 0.081832 -0.138695 -0.006493 1.504469 4.287096 0.847647 0.000000 0.000000 0.000000 1.749566 5.115992 -0.037602 -1.587766 -4.074235 -0.090755 -1.358115 -2.643412 -0.076921 -0.471422 3.304422 1.352310 0.000000 0.000000 0.000000 0.000000 0.000000 0.000000 -0.057106 3.209987 0.561100 -2.455986 2.611963 2.976709 -17.935571 0.162373 -1.528341 12.969193 -1.066126 4.604964 0.000000 0.000000 0.000000 0.000000 0.000000 0.000000 -0.237110 1.627105 -32.116749 2.307279 -1.608332 0.342124 -7.897154 15.377283 0.089211 0.000000 0.000000 0.000000 0.402822 0.394073 -31.934159 -0.000000 0.000000 0.000000 -0.261683 -0.366244 1.176469 0.000000 0.000000 0.000000
24.266168 71.729385 361.157972 -0.137736 -0.787483 32.008922 -0.347596 -0.335290 -32.020994 0.124367 -0.182875 -0.005030 1.631045 6.009581 1.146773 0.000000 0.000000 0.000000 2.337863 7.124229 -0.108206 -2.207226 -5.684137 -0.154263 -1.934687 -3.730617 -0.126232 -0.776869 3.731942 1.711763 0.000000 0.000000 0.000000 0.000000 0.000000 0.000000 -0.521350 5.334926 1.147311 -3.520944 3.180132 4.026124 -22.312143 0.107890 -2.129173 16.425779 -1.905885 5.479110 0.000000 0.000000 0.000000 0.000000 0.000000 0.000000 -0.388352 2.287991 -32.271451 3.125382 -2.114689 0.486463 -10.441360 20.517478 0.492545 0.000000 0.000000 0.000000 0.534224 0.594739 -32.012642 -0.000000 0.000000 0.000000 -0.371816 -0.532990 1.690874 0.000000 0.000000 0.000000
24.272489 71.680066 361.132439 -0.101069 -1.006823 32.017142 -0.363859 -0.412831 -32.028239 0.168661 -0.211266 -0.000257 1.319830 7.398793 1.380377 0.000000 0.000000 0.000000 2.736301 8.772169 -0.192277 -2.709995 -7.010367 -0.216619 -2.419192 -4.614389 -0.174011 -1.234079 3.376127 1.915727 0.000000 0.000000 0.000000 0.000000 0.000000 0.000000 -1.316088 7.867141 1.986305 -4.460286 3.247129 4.750266 -24.869094 -0.106336 -2.473511 18.814900 -2.899718 5.546442 0.000000 0.000000 0.000000 0.000000 0.000000 0.000000 -0.547335 2.808207 -32.344819 3.712076 -2.424371 0.601088 -11.809930 23.618743 0.742999 0.000000 0.000000 0.000000 0.619530 0.800071 -32.022355 -0.000000 0.000000 0.000000 -0.468493 -0.688186 2.155516 0.000000 0.000000 0.000000
24.278136 71.643426 361.130111 -0.023390 -1.206648 31.957590 -0.330960 -0.475762 -31.964811 0.215420 -0.224132 0.007943 0.572122 8.428868 1.556203 0.000000 0.000000 0.000000 2.943277 10.065597 -0.277888 -3.164898 -8.997230 -0.256455 -2.730046 -4.323619 -0.191950 -1.921012 2.151191 1.963242 0.000000 0.000000 0.000000 0.000000 0.000000 0.000000 -2.501017 10.869051 3.140210 -5.260256 2.785127 5.108842 -26.125721 -0.508848 -2.451626 20.518568 -4.081993 4.844806 0.000000 0.000000 0.000000 0.000000 0.000000 0.000000 -0.704071 3.165692 -32.335859 4.055945 -2.535738 0.678898 -11.890440 24.642872 0.649610 0.000000 0.000000 0.000000 0.658583 1.011366 -31.963649 -0.000000 0.000000 0.000000 -0.551976 -0.831432 2.570083 0.000000 0.000000 0.000000
24.267274 71.647234 361.164072 0.103467 -1.447332 31.947296 -0.192580 -0.559231 -31.946135 0.301272 -0.234786 0.024764 -1.033688 9.375029 1.732610 0.000000 0.000000 0.000000 2.903456 10.999442 -0.347154 -3.663556 -10.278310 -0.335277 -2.888376 -3.692982 -0.158984 -5.910534 -7.229530 0.932377 0.000000 0.000000 0.000000 0.000000 0.000000 0.000000 -4.412118 14.853384 4.861581 -5.781232 0.847391 4.157287 -27.160181 -0.523848 0.798668 23.008815 -7.595342 -0.425059 0.000000 0.000000 0.000000 0.000000 0.000000 0.000000 -0.789528 3.471606 -32.349044 4.145864 -2.596796 0.690363 -10.364653 22.847386 0.152334 0.000000 0.000000 0.000000 0.506124 0.137652 -32.230015 -0.465313 1.060443 0.282872 -0.648258 -1.008370 3.065408 0.000000 0.000000 0.000000
24.271398 71.646868 361.210813 0.285198 -1.650052 31.757306 -0.006699 -0.636527 -31.744183 0.381341 -0.240979 0.045224 -2.971273 9.849908 1.833156 0.000000 0.000000 0.000000 2.697091 11.796702 -0.425319 -3.967665 -11.329183 -0.381464 -3.177113 -3.933082 -0.183965 -7.072815 -11.320765 -0.221146 0.000000 0.000000 0.000000 0.000000 0.000000 0.000000 -7.196822 19.527689 7.330242 -6.734316 0.232088 4.726130 -24.667942 -2.812523 -1.900440 21.612180 -7.231919 0.467670 0.000000 0.000000 0.000000 0.000000 0.000000 0.000000 -0.837081 3.411589 -32.156003 3.737995 -2.268532 0.621328 -7.295394 18.715003 -0.637621 0.000000 0.000000 0.000000 0.223880 0.155159 -32.137446 -0.529662 2.310091 0.562793 -0.597376 -2.063405 3.243204 0.000000 0.000000 0.000000
24.270406 71.652611 361.275705 0.504105 -1.769801 31.538244 0.209054 -0.648045 -31.511204 0.447938 -0.198578 0.066284 -5.013338 9.541470 1.776546 0.000000 0.000000 0.000000 2.223090 11.899555 -0.465383 -3.985561 -11.802388 -0.368718 -2.944253 -3.462511 -0.175584 -6.885582 -10.518608 -0.020448 0.000000 0.000000 0.000000 0.000000 0.000000 0.000000 -10.484794 24.295162 10.293067 -6.913586 -2.100543 3.760086 -22.414503 -4.785060 -3.973175 22.018766 -6.037178 3.663222 0.000000 0.000000 0.000000 0.000000 0.000000 0.000000 -0.851063 3.053618 -31.908068 2.990715 -1.623086 0.515653 -2.463735 12.442553 -1.619699 0.000000 0.000000 0.000000 0.010066 0.360661 -31.932348 -0.340964 2.485476 0.640837 -1.649446 0.724534 2.281939 0.000000 0.000000 0.000000
24.293680 71.640498 361.337537 0.697831 -1.791353 31.119959 0.316216 -0.588382 -31.082795 0.442924 -0.129319 0.076593 -6.171327 8.826219 1.611931 0.000000 0.000000 0.000000 1.690533 11.502895 -0.479014 -3.579439 -11.889359 -0.255321 -2.936282 -2.656670 -0.133834 -5.839884 -8.389992 0.374789 0.000000 0.000000 0.000000 0.000000 0.000000 0.000000 -13.773327 28.355521 13.408637 -6.694910 -4.185209 3.184207 -21.511160 -5.584115 -1.191551 22.197693 -7.680782 1.906806 0.000000 0.000000 0.000000 0.000000 0.000000 0.000000 -1.232295 2.971725 -31.547097 2.967374 -1.185446 0.582195 1.910755 5.675439 -2.000443 0.000000 0.000000 0.000000 0.328401 1.894188 -31.114478 -0.000000 0.000000 0.000000 -0.487012 -2.039003 3.922079 0.000000 0.000000 0.000000
24.319788 71.610987 361.390073 0.865155 -1.845460 30.792974 0.350188 -0.491087 -30.748785 0.396484 -0.035588 0.079367 -6.752385 8.184629 1.454132 0.000000 0.000000 0.000000 1.361222 11.265252 -0.498725 -3.225499 -12.191352 -0.150157 -3.106171 -1.968825 -0.092858 -6.414693 -10.704396 -0.232607 0.000000 0.000000 0.000000 0.000000 0.000000 0.000000 -16.365041 32.053766 16.138925 -6.873568 -6.112335 2.995830 -21.774571 -5.340685 6.385103 17.644762 -11.061416 -6.412230 0.000000 0.000000 0.000000 0.000000 0.000000 0.000000 -1.421760 2.858275 -31.236371 2.726155 -0.738571 0.593975 1.900863 4.091385 -1.639385 0.000000 0.000000 0.000000 -0.197330 1.314843 -31.008305 0.451403 1.621203 0.545652 0.065792 -6.160466 5.023374 0.000000 0.000000 0.000000
24.314615 71.564637 361.428675 1.018792 -1.890503 30.576623 0.330582 -0.449272 -30.525976 0.354363 -0.000804 0.081445 -7.293349 7.739860 1.326713 0.000000 0.000000 0.000000 1.160468 11.253437 -0.520777 -3.049076 -12.699494 -0.084461 -3.097028 -1.378929 -0.074976 -8.033611 -12.138946 0.029688 0.000000 0.000000 0.000000 0.000000 0.000000 0.000000 -18.226509 35.478942 18.328776 -7.263242 -8.029758 3.121961 -22.182242 -5.391305 9.378965 14.543719 -11.413278 -9.368891 0.000000 0.000000 0.000000 0.000000 0.000000 0.000000 -1.454858 2.590348 -31.000525 2.197170 -0.117629 0.563789 -1.678121 2.959516 -0.190051 0.000000 0.000000 0.000000 0.084331 2.145799 -30.561393 0.594894 0.675032 0.318511 0.826025 -8.626009 6.239034 0.000000 0.000000 0.000000
24.289888 71.542975 361.467391 1.133273 -1.932193 30.627757 0.230576 -0.393959 -30.573425 0.295193 -0.004543 0.078249 -7.411777 7.533342 1.261222 0.000000 0.000000 0.000000 1.160862 11.400039 -0.539685 -3.010594 -13.293519 -0.049677 -3.360871 -0.943601 -0.037539 -7.100703 -11.978097 -0.318428 0.000000 0.000000 0.000000 0.000000 0.000000 0.000000 -18.532800 37.793651 19.164313 -8.574702 -8.509090 3.849216 -20.516905 -6.254443 11.734448 7.411831 -8.188573 -9.983382 0.000000 0.000000 0.000000 0.000000 0.000000 0.000000 -1.229811 2.036896 -30.980337 0.956501 0.811547 0.410965 -3.174027 -2.761552 1.414563 0.000000 0.000000 0.000000 0.008887 2.239891 -30.608819 0.622337 0.584502 0.306170 1.369164 -10.211883 7.192423 0.000000 0.000000 0.000000
